<svg version="1.1" viewBox="0.0 0.0 300.0 300.0" fill="none" stroke="none" stroke-linecap="square" stroke-miterlimit="10" xmlns:xlink="http://www.w3.org/1999/xlink" xmlns="http://www.w3.org/2000/svg">

    <clipPath id="p.0">
        <path d="m0 0l300.0 0l0 300.0l-300.0 0l0 -300.0z" clip-rule="nonzero"/>
    </clipPath>

    <g clip-path="url(#p.0)">
        <path fill="#000000" fill-opacity="0.0" d="m0 0l300.0 0l0 300.0l-300.0 0z" fill-rule="evenodd"/>
        
        <!-- Frame transparent center -->
        <path fill="#000000" fill-opacity="0.0" d="m261.4357 69.98976c-21.08583 7.7938156 -44.427124 2.0535889 -66.653534 2.0535889c-36.413254 0 -72.822586 -1.0267944 -109.23584 -1.0267944c-15.429451 0 -31.650696 -5.4104233 -46.28836 0c-7.616947 2.8153992 -0.9259834 17.786407 -0.9259834 26.689484c0 21.899368 0 43.798737 0 65.698105c0 22.927917 0.4464798 45.898743 -0.9259796 68.77611c-0.8624916 14.376785 -8.364252 35.702652 2.7779427 43.11577c9.261147 6.1616516 21.61539 -0.6281433 32.400787 0c26.517235 1.5444031 53.059204 3.0780334 79.61299 3.0780334c21.601242 0 43.20247 0 64.80371 0c8.330978 0 19.105438 6.53598 24.992935 0c9.823029 -10.905029 0.072784424 -30.907455 1.8519592 -46.1938c6.2016754 -53.28366 1.8519592 -107.4381 1.8519592 -161.1637" fill-rule="evenodd"/>
        
        <!-- Frame contour -->
        <path stroke="#2A628F" mask="url(#mask)" stroke-width="24.0" stroke-linejoin="round" stroke-linecap="butt" d="m261.4357 69.98976c-21.08583 7.7938156 -44.427124 2.0535889 -66.653534 2.0535889c-36.413254 0 -72.822586 -1.0267944 -109.23584 -1.0267944c-15.429451 0 -31.650696 -5.4104233 -46.28836 0c-7.616947 2.8153992 -0.9259834 17.786407 -0.9259834 26.689484c0 21.899368 0 43.798737 0 65.698105c0 22.927917 0.4464798 45.898743 -0.9259796 68.77611c-0.8624916 14.376785 -8.364252 35.702652 2.7779427 43.11577c9.261147 6.1616516 21.61539 -0.6281433 32.400787 0c26.517235 1.5444031 53.059204 3.0780334 79.61299 3.0780334c21.601242 0 43.20247 0 64.80371 0c8.330978 0 19.105438 6.53598 24.992935 0c9.823029 -10.905029 0.072784424 -30.907455 1.8519592 -46.1938c6.2016754 -53.28366 1.8519592 -107.4381 1.8519592 -161.1637" fill-rule="evenodd"/>
        
        <!-- Leaf green center -->
        <path fill="#48d5c0" mask="url(#mask)" d="m80.032425 247.38503c6.7615967 5.5118103 27.620735 -12.106735 45.133858 -14.10498c17.51313 -1.9982605 40.550743 7.5223083 59.944878 2.1154785c19.39415 -5.40683 41.609802 -16.102798 56.419952 -34.556427c14.810135 -18.453629 25.585312 -46.445328 32.440933 -76.16536c6.855652 -29.720032 10.049011 -76.66754 8.692932 -102.154854c-1.3560791 -25.487314 -12.406403 -48.65354 -16.829407 -50.769028c-4.423004 -2.1154861 -1.402008 26.559055 -9.708649 38.076115c-8.306656 11.51706 -24.886703 23.812336 -40.13124 31.026249c-15.244537 7.213909 -35.610245 6.8674507 -51.335953 12.257217c-15.725723 5.389763 -30.559494 10.50481 -43.01838 20.081367c-12.458878 9.576546 -24.44751 23.2734 -31.73491 37.377953c-7.2873993 14.104546 -11.104546 32.309265 -11.989502 47.249344c-0.88494873 14.940063 6.3272095 27.463257 6.6797943 42.391068c0.3525772 14.927826 -11.325897 41.664047 -4.564308 47.175858z" fill-rule="evenodd"/>
    </g>

    <mask id="mask">
        <!-- Black background -->
        <path fill="#ffffff" d="m0 0l300.0 0l0 300.0l-300.0 0z" fill-rule="evenodd"/>
        
        <!-- Leaf white contour -->
        <path stroke="#000000" stroke-width="24.0" stroke-linejoin="round" stroke-linecap="butt" d="m80.032425 247.38503c6.7615967 5.5118103 27.620735 -12.106735 45.133858 -14.10498c17.51313 -1.9982605 40.550743 7.5223083 59.944878 2.1154785c19.39415 -5.40683 41.609802 -16.102798 56.419952 -34.556427c14.810135 -18.453629 25.585312 -46.445328 32.440933 -76.16536c6.855652 -29.720032 10.049011 -76.66754 8.692932 -102.154854c-1.3560791 -25.487314 -12.406403 -48.65354 -16.829407 -50.769028c-4.423004 -2.1154861 -1.402008 26.559055 -9.708649 38.076115c-8.306656 11.51706 -24.886703 23.812336 -40.13124 31.026249c-15.244537 7.213909 -35.610245 6.8674507 -51.335953 12.257217c-15.725723 5.389763 -30.559494 10.50481 -43.01838 20.081367c-12.458878 9.576546 -24.44751 23.2734 -31.73491 37.377953c-7.2873993 14.104546 -11.104546 32.309265 -11.989502 47.249344c-0.88494873 14.940063 6.3272095 27.463257 6.6797943 42.391068c0.3525772 14.927826 -11.325897 41.664047 -4.564308 47.175858z" fill-rule="evenodd"/>
        <path fill="#000000" d="m87.7897 229.75334c-0.061676025 6.953644 8.814087 12.342529 14.808403 5.643051c5.994316 -6.699478 11.989502 -31.02974 21.157478 -45.83989c9.167984 -14.81015 24.329834 -31.61943 33.850388 -43.020996c9.520569 -11.401581 14.489502 -16.965454 23.27298 -25.388458c8.783463 -8.423012 29.797455 -23.832024 29.42781 -25.149605c-0.36964417 -1.3175888 -21.562119 10.748909 -31.64566 17.244095c-10.083557 6.495186 -19.576126 13.384079 -28.855652 21.727028c-9.279526 8.342957 -19.015305 18.546371 -26.821518 28.330719c-7.8062134 9.784332 -14.150047 19.299652 -20.015747 30.37532c-5.8657074 11.075684 -15.116798 29.125107 -15.178482 36.078735z" fill-rule="evenodd"/>
    </mask>
</svg>
